<svg xmlns="http://www.w3.org/2000/svg" role="img" viewBox="0 0 24 24" fill="#003791"><title>PlayStation</title><path d="M23.669 16.035c-.015-.045-.299-.957-1.121-1.376-.823-.42-1.645-.239-1.645-.239l-9.155 3.036V7.073c1.455-.164 2.825-.66 3.863-1.442 1.037-.783 1.398-1.745 1.398-1.745.015-.06.015-.15.015-.225 0-.75-.823-1.169-1.796-1.169-.972 0-2.316.36-3.483.989-.328.18-.627.359-.896.539V1.439C11.52.48.972 0 .972 0c-.972 0-1.796.42-1.796 1.169 0 .075 0 .165.015.225 0 0 .36 1.02 1.398 1.802s2.408 1.278 3.863 1.442v12.381c-1.455.164-2.825.66-3.863 1.442-1.037.783-1.398 1.745-1.398 1.745-.015.06-.015.15-.015.225 0 .75.823 1.169 1.796 1.169.972 0 2.316-.36 3.483-.989a16.4 16.4 0 0 0 1.226-.704v.704c0 .959 1.048 1.439 1.048 1.439.972 0 1.796-.42 1.796-1.169.015-.075.015-.165.015-.225 0 0-.299-.957-1.121-1.376-.823-.42-1.645-.239-1.645-.239l-9.155 3.036v-4.015l9.155-3.036c.015.045.299.957 1.121 1.376.823.42 1.645.239 1.645.239l9.155-3.036v4.015l-9.155 3.036c-.015-.045-.299-.957-1.121-1.376-.823-.42-1.645-.239-1.645-.239l9.155-3.036v-4.015z"/></svg>
